{
  "accessors": [
    {
      "bufferView": 3,
      "componentType": 5126,
      "count": 8949,
      "max": [
        283.00653076171875,
        320.24856567382812,
        594.74853515625
      ],
      "min": [
        -283.00653076171875,
        -320.24856567382812,
        -594.74847412109375
      ],
      "type": "VEC3"
    },
    {
      "bufferView": 3,
      "byteOffset": 107388,
      "componentType": 5126,
      "count": 8949,
      "max": [
        1,
        1,
        1
      ],
      "min": [
        -1,
        -1,
        -1
      ],
      "type": "VEC3"
    },
    {
      "bufferView": 4,
      "componentType": 5126,
      "count": 8949,
      "max": [
        1,
        1,
        1,
        1
      ],
      "min": [
        -1,
        -1,
        -1,
        -1
      ],
      "type": "VEC4"
    },
    {
      "bufferView": 2,
      "componentType": 5126,
      "count": 8949,
      "max": [
        0.99741959571838379,
        0.99742120504379272
      ],
      "min": [
        0.0025803693570196629,
        0.0025787912309169769
      ],
      "type": "VEC2"
    },
    {
      "bufferView": 1,
      "componentType": 5125,
      "count": 30327,
      "max": [
        8948
      ],
      "min": [
        0
      ],
      "type": "SCALAR"
    },
    {
      "bufferView": 5,
      "componentType": 5126,
      "count": 12,
      "max": [
        1,
        5.0969403581472121e-17,
        1.5099580474853269e-09,
        0,
        1.5099580474853269e-09,
        1,
        0,
        0,
        1.0193880054549934e-16,
        0.0099999997764825821,
        1,
        0,
        2.4579627513885498,
        3.8677513599395752,
        4.665956974029541,
        1
      ],
      "min": [
        0.0099999997764825821,
        -1.5099580474853269e-09,
        0,
        0,
        0,
        -6.7511018997379324e-10,
        -0.0099999997764825821,
        0,
        -7.8062218929266398e-17,
        0,
        -6.7511018997379324e-10,
        0,
        -2.4579622745513916,
        -1.6143374443054199,
        -1.5103950500488281,
        1
      ],
      "type": "MAT4"
    },
    {
      "bufferView": 0,
      "componentType": 5123,
      "count": 8949,
      "max": [
        10,
        1,
        1,
        1
      ],
      "min": [
        1,
        1,
        1,
        1
      ],
      "type": "VEC4"
    },
    {
      "bufferView": 4,
      "byteOffset": 143184,
      "componentType": 5126,
      "count": 8949,
      "max": [
        1,
        0,
        0,
        0
      ],
      "min": [
        1,
        0,
        0,
        0
      ],
      "type": "VEC4"
    },
    {
      "bufferView": 6,
      "componentType": 5126,
      "count": 368,
      "max": [
        7.5
      ],
      "min": [
        0
      ],
      "type": "SCALAR"
    },
    {
      "bufferView": 8,
      "componentType": 5126,
      "count": 368,
      "max": [
        1,
        1.149844345985692e-14,
        1.2281644851239084e-14,
        1
      ],
      "min": [
        -0.86153548955917358,
        -4.4779502134594754e-15,
        -1.0956909038655881e-14,
        -0.49703571200370789
      ],
      "type": "VEC4"
    },
    {
      "bufferView": 6,
      "byteOffset": 1472,
      "componentType": 5126,
      "count": 368,
      "max": [
        7.5
      ],
      "min": [
        0
      ],
      "type": "SCALAR"
    },
    {
      "bufferView": 8,
      "byteOffset": 5888,
      "componentType": 5126,
      "count": 368,
      "max": [
        1,
        2.5247099400796565e-14,
        2.1559892136565131e-14,
        1
      ],
      "min": [
        -0.86153548955917358,
        -2.175845190599459e-14,
        -1.2789570699158967e-14,
        -0.49703571200370789
      ],
      "type": "VEC4"
    },
    {
      "bufferView": 6,
      "byteOffset": 2944,
      "componentType": 5126,
      "count": 368,
      "max": [
        7.5
      ],
      "min": [
        0
      ],
      "type": "SCALAR"
    },
    {
      "bufferView": 8,
      "byteOffset": 11776,
      "componentType": 5126,
      "count": 368,
      "max": [
        1,
        2.5247099400796565e-14,
        2.1559892136565131e-14,
        1
      ],
      "min": [
        -0.86153548955917358,
        -2.175845190599459e-14,
        -1.2789570699158967e-14,
        -0.49703571200370789
      ],
      "type": "VEC4"
    },
    {
      "bufferView": 6,
      "byteOffset": 4416,
      "componentType": 5126,
      "count": 368,
      "max": [
        7.5
      ],
      "min": [
        0
      ],
      "type": "SCALAR"
    },
    {
      "bufferView": 8,
      "byteOffset": 17664,
      "componentType": 5126,
      "count": 368,
      "max": [
        1,
        1.149844345985692e-14,
        1.2281644851239084e-14,
        1
      ],
      "min": [
        -0.86153548955917358,
        -4.4779502134594754e-15,
        -1.0956909038655881e-14,
        -0.49703571200370789
      ],
      "type": "VEC4"
    },
    {
      "bufferView": 6,
      "byteOffset": 5888,
      "componentType": 5126,
      "count": 251,
      "max": [
        7.5
      ],
      "min": [
        0
      ],
      "type": "SCALAR"
    },
    {
      "bufferView": 8,
      "byteOffset": 23552,
      "componentType": 5126,
      "count": 251,
      "max": [
        -0.7071068286895752,
        -3.8518521705555031e-08,
        -5.3385075915457492e-08,
        0.70710670948028564
      ],
      "min": [
        -0.86005973815917969,
        -5.3385065257316455e-08,
        -6.4932692112051882e-08,
        0.51019340753555298
      ],
      "type": "VEC4"
    },
    {
      "bufferView": 6,
      "byteOffset": 6892,
      "componentType": 5126,
      "count": 175,
      "max": [
        7.5
      ],
      "min": [
        0
      ],
      "type": "SCALAR"
    },
    {
      "bufferView": 7,
      "componentType": 5126,
      "count": 175,
      "max": [
        0,
        4.7172236442565918,
        -0.62181419134140015
      ],
      "min": [
        0,
        0,
        -1.309319019317627
      ],
      "type": "VEC3"
    },
    {
      "bufferView": 6,
      "byteOffset": 7592,
      "componentType": 5126,
      "count": 175,
      "max": [
        7.5
      ],
      "min": [
        0
      ],
      "type": "SCALAR"
    },
    {
      "bufferView": 8,
      "byteOffset": 27568,
      "componentType": 5126,
      "count": 175,
      "max": [
        1,
        6.6233091233769414e-10,
        7.5497901264043321e-08,
        0.057458791881799698
      ],
      "min": [
        0.99834787845611572,
        -4.3380206093956986e-09,
        7.5373165486780636e-08,
        -0.0087728723883628845
      ],
      "type": "VEC4"
    },
    {
      "bufferView": 6,
      "byteOffset": 8292,
      "componentType": 5126,
      "count": 521,
      "max": [
        10
      ],
      "min": [
        0
      ],
      "type": "SCALAR"
    },
    {
      "bufferView": 8,
      "byteOffset": 30368,
      "componentType": 5126,
      "count": 521,
      "max": [
        1,
        2.5484701459863816e-15,
        2.5484701459863816e-15,
        1
      ],
      "min": [
        -0.86425703763961792,
        -2.2025329964817791e-15,
        -1.1675683198245751e-15,
        -0.45814475417137146
      ],
      "type": "VEC4"
    },
    {
      "bufferView": 6,
      "byteOffset": 10376,
      "componentType": 5126,
      "count": 521,
      "max": [
        10
      ],
      "min": [
        0
      ],
      "type": "SCALAR"
    },
    {
      "bufferView": 8,
      "byteOffset": 38704,
      "componentType": 5126,
      "count": 521,
      "max": [
        1,
        5.5758239212301379e-15,
        2.9557585271353234e-15,
        1
      ],
      "min": [
        -0.86425703763961792,
        -6.4515814497917261e-15,
        -6.4515814497917261e-15,
        -0.45814475417137146
      ],
      "type": "VEC4"
    },
    {
      "bufferView": 6,
      "byteOffset": 12460,
      "componentType": 5126,
      "count": 521,
      "max": [
        10
      ],
      "min": [
        0
      ],
      "type": "SCALAR"
    },
    {
      "bufferView": 8,
      "byteOffset": 47040,
      "componentType": 5126,
      "count": 521,
      "max": [
        1,
        5.5758239212301379e-15,
        2.9557585271353234e-15,
        1
      ],
      "min": [
        -0.86425703763961792,
        -6.4515814497917261e-15,
        -6.4515814497917261e-15,
        -0.45814475417137146
      ],
      "type": "VEC4"
    },
    {
      "bufferView": 6,
      "byteOffset": 14544,
      "componentType": 5126,
      "count": 521,
      "max": [
        10
      ],
      "min": [
        0
      ],
      "type": "SCALAR"
    },
    {
      "bufferView": 8,
      "byteOffset": 55376,
      "componentType": 5126,
      "count": 521,
      "max": [
        1,
        2.5484701459863816e-15,
        2.5484701459863816e-15,
        1
      ],
      "min": [
        -0.86425703763961792,
        -2.2025329964817791e-15,
        -1.1675683198245751e-15,
        -0.45814475417137146
      ],
      "type": "VEC4"
    },
    {
      "bufferView": 6,
      "byteOffset": 16628,
      "componentType": 5126,
      "count": 229,
      "max": [
        10
      ],
      "min": [
        0
      ],
      "type": "SCALAR"
    },
    {
      "bufferView": 8,
      "byteOffset": 63712,
      "componentType": 5126,
      "count": 229,
      "max": [
        -0.52937471866607666,
        -3.7926550788824898e-08,
        -3.9966675302594012e-08,
        0.84838813543319702
      ],
      "min": [
        -0.86466294527053833,
        -6.4051512538298994e-08,
        -6.5280225669539504e-08,
        0.50235247611999512
      ],
      "type": "VEC4"
    },
    {
      "bufferView": 6,
      "byteOffset": 17544,
      "componentType": 5126,
      "count": 1,
      "max": [
        0
      ],
      "min": [
        0
      ],
      "type": "SCALAR"
    },
    {
      "bufferView": 8,
      "byteOffset": 67376,
      "componentType": 5126,
      "count": 1,
      "max": [
        1,
        7.5046831135528944e-15,
        7.5497901264043321e-08,
        -1.3315805347247078e-07
      ],
      "min": [
        1,
        7.5046831135528944e-15,
        7.5497901264043321e-08,
        -1.3315805347247078e-07
      ],
      "type": "VEC4"
    }
  ],
  "animations": [
    {
      "channels": [
        {
          "sampler": 0,
          "target": {
            "node": 12,
            "path": "rotation"
          }
        },
        {
          "sampler": 1,
          "target": {
            "node": 14,
            "path": "rotation"
          }
        },
        {
          "sampler": 2,
          "target": {
            "node": 16,
            "path": "rotation"
          }
        },
        {
          "sampler": 3,
          "target": {
            "node": 18,
            "path": "rotation"
          }
        },
        {
          "sampler": 4,
          "target": {
            "node": 20,
            "path": "rotation"
          }
        },
        {
          "sampler": 5,
          "target": {
            "node": 11,
            "path": "translation"
          }
        },
        {
          "sampler": 6,
          "target": {
            "node": 11,
            "path": "rotation"
          }
        }
      ],
      "name": "Armature|Fire",
      "samplers": [
        {
          "input": 8,
          "interpolation": "LINEAR",
          "output": 9
        },
        {
          "input": 10,
          "interpolation": "LINEAR",
          "output": 11
        },
        {
          "input": 12,
          "interpolation": "LINEAR",
          "output": 13
        },
        {
          "input": 14,
          "interpolation": "LINEAR",
          "output": 15
        },
        {
          "input": 16,
          "interpolation": "LINEAR",
          "output": 17
        },
        {
          "input": 18,
          "interpolation": "LINEAR",
          "output": 19
        },
        {
          "input": 20,
          "interpolation": "LINEAR",
          "output": 21
        }
      ]
    },
    {
      "channels": [
        {
          "sampler": 0,
          "target": {
            "node": 12,
            "path": "rotation"
          }
        },
        {
          "sampler": 1,
          "target": {
            "node": 14,
            "path": "rotation"
          }
        },
        {
          "sampler": 2,
          "target": {
            "node": 16,
            "path": "rotation"
          }
        },
        {
          "sampler": 3,
          "target": {
            "node": 18,
            "path": "rotation"
          }
        },
        {
          "sampler": 4,
          "target": {
            "node": 20,
            "path": "rotation"
          }
        },
        {
          "sampler": 5,
          "target": {
            "node": 11,
            "path": "rotation"
          }
        }
      ],
      "name": "Armature|Roll",
      "samplers": [
        {
          "input": 22,
          "interpolation": "LINEAR",
          "output": 23
        },
        {
          "input": 24,
          "interpolation": "LINEAR",
          "output": 25
        },
        {
          "input": 26,
          "interpolation": "LINEAR",
          "output": 27
        },
        {
          "input": 28,
          "interpolation": "LINEAR",
          "output": 29
        },
        {
          "input": 30,
          "interpolation": "LINEAR",
          "output": 31
        },
        {
          "input": 32,
          "interpolation": "LINEAR",
          "output": 33
        }
      ]
    }
  ],
  "asset": {
    "extras": {
      "author": "Blender3D (https://sketchfab.com/Blender3D)",
      "license": "CC-BY-4.0 (http://creativecommons.org/licenses/by/4.0/)",
      "source": "https://sketchfab.com/models/83252a74e71b46139d07c928dfcb85b3",
      "title": "Simple Cannon"
    },
    "generator": "Sketchfab-3.26.6",
    "version": "2.0"
  },
  "bufferViews": [
    {
      "buffer": 0,
      "byteLength": 71592,
      "byteOffset": 0,
      "byteStride": 8,
      "name": "shortBufferViews",
      "target": 34962
    },
    {
      "buffer": 0,
      "byteLength": 121308,
      "byteOffset": 71592,
      "name": "floatBufferViews",
      "target": 34963
    },
    {
      "buffer": 0,
      "byteLength": 71592,
      "byteOffset": 192900,
      "byteStride": 8,
      "name": "floatBufferViews",
      "target": 34962
    },
    {
      "buffer": 0,
      "byteLength": 214776,
      "byteOffset": 264492,
      "byteStride": 12,
      "name": "floatBufferViews",
      "target": 34962
    },
    {
      "buffer": 0,
      "byteLength": 286368,
      "byteOffset": 479268,
      "byteStride": 16,
      "name": "floatBufferViews",
      "target": 34962
    },
    {
      "buffer": 0,
      "byteLength": 768,
      "byteOffset": 765636,
      "byteStride": 64,
      "name": "floatBufferViews"
    },
    {
      "buffer": 0,
      "byteLength": 17548,
      "byteOffset": 766404,
      "name": "floatBufferViews"
    },
    {
      "buffer": 0,
      "byteLength": 2100,
      "byteOffset": 783952,
      "byteStride": 12,
      "name": "floatBufferViews"
    },
    {
      "buffer": 0,
      "byteLength": 67392,
      "byteOffset": 786052,
      "byteStride": 16,
      "name": "floatBufferViews"
    }
  ],
  "buffers": [
    {
      "byteLength": 853444,
      "uri": "scene.bin"
    }
  ],
  "images": [
    {
      "uri": "textures/Scene_-_Root_baseColor.png"
    },
    {
      "uri": "textures/Scene_-_Root_normal.png"
    },
    {
      "uri": "textures/Scene_-_Root_metallicRoughness.png"
    }
  ],
  "materials": [
    {
      "doubleSided": true,
      "name": "Scene_-_Root",
      "normalTexture": {
        "index": 1,
        "scale": 1,
        "texCoord": 0
      },
      "occlusionTexture": {
        "index": 2,
        "strength": 1,
        "texCoord": 0
      },
      "pbrMetallicRoughness": {
        "baseColorFactor": [
          1,
          1,
          1,
          1
        ],
        "baseColorTexture": {
          "index": 0,
          "texCoord": 0
        },
        "metallicFactor": 1,
        "metallicRoughnessTexture": {
          "index": 2,
          "texCoord": 0
        },
        "roughnessFactor": 1
      }
    }
  ],
  "meshes": [
    {
      "name": "Cannon.001__0",
      "primitives": [
        {
          "attributes": {
            "JOINTS_0": 6,
            "NORMAL": 1,
            "POSITION": 0,
            "TANGENT": 2,
            "TEXCOORD_0": 3,
            "WEIGHTS_0": 7
          },
          "indices": 4,
          "material": 0,
          "mode": 4
        }
      ]
    }
  ],
  "nodes": [
    {
      "children": [
        1
      ],
      "name": "RootNode (gltf orientation matrix)",
      "rotation": [
        -0.70710678118654746,
        -0,
        -0,
        0.70710678118654757
      ]
    },
    {
      "children": [
        2
      ],
      "name": "RootNode (model correction matrix)"
    },
    {
      "children": [
        3
      ],
      "matrix": [
        1,
        0,
        0,
        0,
        0,
        0,
        1,
        0,
        0,
        -1,
        0,
        0,
        0,
        0,
        0,
        1
      ],
      "name": "gun.fbx"
    },
    {
      "children": [
        4
      ],
      "name": ""
    },
    {
      "children": [
        5,
        8,
        24
      ],
      "name": "RootNode"
    },
    {
      "children": [
        6
      ],
      "name": "Hemi",
      "rotation": [
        -3.7748950632021661e-08,
        -0,
        0,
        1
      ],
      "scale": [
        100,
        100,
        100
      ],
      "translation": [
        -184.37045288085938,
        130.01246643066406,
        -147.41329956054688
      ]
    },
    {
      "children": [
        7
      ],
      "matrix": [
        1,
        0,
        0,
        0,
        0,
        2.2204460492503131e-16,
        1,
        0,
        0,
        -1,
        2.2204460492503131e-16,
        0,
        0,
        0,
        0,
        1
      ],
      "name": ""
    },
    {
      "name": ""
    },
    {
      "children": [
        9
      ],
      "name": "Armature",
      "rotation": [
        -0.7071068286895752,
        0,
        0,
        0.70710670948028564
      ],
      "scale": [
        100,
        100,
        100
      ],
      "translation": [
        0,
        -20.107578277587891,
        -386.775146484375
      ]
    },
    {
      "children": [
        10,
        23,
        22
      ],
      "name": ""
    },
    {
      "children": [
        11
      ],
      "name": "_rootJoint"
    },
    {
      "children": [
        12,
        14,
        16,
        18,
        20
      ],
      "name": "Bone_00",
      "rotation": [
        1,
        3.1514627367413509e-15,
        7.5497901264043321e-08,
        -7.5497901264043321e-08
      ],
      "translation": [
        0,
        -4.4408920985006262e-16,
        -1.309319019317627
      ]
    },
    {
      "children": [
        13
      ],
      "name": "Bone.001_01",
      "rotation": [
        -0.7071068286895752,
        -1.8020405724268954e-15,
        1.8020405724268954e-15,
        0.70710670948028564
      ],
      "translation": [
        2.4501619338989258,
        -0.79820513725280762,
        0.55666977167129517
      ]
    },
    {
      "name": "Bone.001_end_06",
      "rotation": [
        -2.6469779601696886e-23,
        1.5777218104420236e-30,
        -2.4331687291787495e-23,
        1
      ],
      "translation": [
        0,
        1,
        0
      ]
    },
    {
      "children": [
        15
      ],
      "name": "Bone.002_02",
      "rotation": [
        -0.7071068286895752,
        4.5619568235857888e-15,
        -4.5619568235857888e-15,
        0.70710670948028564
      ],
      "translation": [
        2.4579625129699707,
        3.5819649696350098,
        0.48981344699859619
      ]
    },
    {
      "name": "Bone.002_end_07",
      "rotation": [
        0,
        -0,
        -2.5664586120294178e-23,
        1
      ],
      "translation": [
        4.4408920985006262e-16,
        0.99999994039535522,
        0
      ]
    },
    {
      "children": [
        17
      ],
      "name": "Bone.003_03",
      "rotation": [
        -0.7071068286895752,
        4.5619568235857888e-15,
        -4.5619568235857888e-15,
        0.70710670948028564
      ],
      "translation": [
        -2.4579625129699707,
        3.5819649696350098,
        0.4898127019405365
      ]
    },
    {
      "name": "Bone.003_end_08",
      "rotation": [
        0,
        -0,
        -2.5664586120294178e-23,
        1
      ],
      "translation": [
        0,
        0.99999994039535522,
        0
      ]
    },
    {
      "children": [
        19
      ],
      "name": "Bone.004_04",
      "rotation": [
        -0.7071068286895752,
        -1.8020405724268954e-15,
        1.8020405724268954e-15,
        0.70710670948028564
      ],
      "translation": [
        -2.4501619338989258,
        -0.79820513725280762,
        0.55666905641555786
      ]
    },
    {
      "name": "Bone.004_end_09",
      "rotation": [
        -2.6469779601696886e-23,
        1.5777218104420236e-30,
        -2.4331687291787495e-23,
        1
      ],
      "translation": [
        0,
        1,
        -8.8817841970012523e-16
      ]
    },
    {
      "children": [
        21
      ],
      "name": "Bone.005_05",
      "rotation": [
        -0.7071068286895752,
        -5.3385068810030134e-08,
        -5.338507946817117e-08,
        0.70710670948028564
      ],
      "translation": [
        2.9300758797035087e-07,
        2.7935748100280762,
        -3.124732494354248
      ]
    },
    {
      "name": "Bone.005_end_010",
      "rotation": [
        0,
        -0,
        -7.8546833448499062e-31,
        1
      ],
      "translation": [
        0,
        0.9999997615814209,
        0
      ]
    },
    {
      "matrix": [
        100.00000000000227,
        -5.6843452742125905e-14,
        -2.4814772141737273e-21,
        0,
        -2.4814771475841146e-21,
        1.1714553645825294e-13,
        -100.00000000000045,
        0,
        5.684345274212617e-14,
        100.00000000000274,
        1.1714553645825562e-13,
        0,
        -6.5543172289312529e-13,
        4.4059965489395836e-06,
        2.3548271258277964e-05,
        1
      ],
      "name": ""
    },
    {
      "mesh": 0,
      "name": "",
      "skin": 0
    },
    {
      "name": "Cannon.001",
      "rotation": [
        -0.7071068286895752,
        0,
        0,
        0.70710670948028564
      ],
      "scale": [
        100,
        100,
        100
      ],
      "translation": [
        0,
        4.4703483581542969e-06,
        0
      ]
    }
  ],
  "samplers": [
    {
      "magFilter": 9729,
      "minFilter": 9987,
      "wrapS": 10497,
      "wrapT": 10497
    }
  ],
  "scene": 0,
  "scenes": [
    {
      "name": "OSG_Scene",
      "nodes": [
        0
      ]
    }
  ],
  "skins": [
    {
      "inverseBindMatrices": 5,
      "joints": [
        10,
        11,
        12,
        13,
        14,
        15,
        16,
        17,
        18,
        19,
        20,
        21
      ],
      "skeleton": 10
    }
  ],
  "textures": [
    {
      "sampler": 0,
      "source": 0
    },
    {
      "sampler": 0,
      "source": 1
    },
    {
      "sampler": 0,
      "source": 2
    }
  ]
}

